<?xml version="1.0" encoding="UTF-8"?>
<svg xmlns="http://www.w3.org/2000/svg" version="1.1" width="100" height="100" viewBox="0 0 100 100"><rect x="0" y="0" width="100" height="100" fill="#ffffff"/><g transform="scale(4)"><g transform="translate(0,0)"><path fill-rule="evenodd" d="M9 0L9 1L8 1L8 2L9 2L9 3L8 3L8 4L10 4L10 7L11 7L11 4L12 4L12 5L14 5L14 4L15 4L15 3L16 3L16 2L17 2L17 0L16 0L16 1L15 1L15 0L14 0L14 1L11 1L11 2L10 2L10 0ZM14 1L14 2L12 2L12 4L13 4L13 3L14 3L14 2L15 2L15 1ZM10 3L10 4L11 4L11 3ZM16 4L16 5L15 5L15 6L14 6L14 8L13 8L13 6L12 6L12 9L13 9L13 10L11 10L11 11L10 11L10 9L11 9L11 8L6 8L6 9L5 9L5 8L0 8L0 10L1 10L1 11L0 11L0 17L1 17L1 13L3 13L3 15L4 15L4 16L6 16L6 17L8 17L8 19L9 19L9 20L8 20L8 25L9 25L9 20L10 20L10 19L11 19L11 21L10 21L10 22L11 22L11 21L12 21L12 22L13 22L13 23L14 23L14 24L10 24L10 25L15 25L15 24L17 24L17 23L18 23L18 24L19 24L19 25L25 25L25 21L23 21L23 20L22 20L22 19L24 19L24 20L25 20L25 18L22 18L22 17L23 17L23 16L22 16L22 17L21 17L21 15L22 15L22 13L23 13L23 15L24 15L24 16L25 16L25 14L24 14L24 13L25 13L25 10L24 10L24 8L23 8L23 11L24 11L24 12L22 12L22 13L21 13L21 11L22 11L22 10L20 10L20 8L19 8L19 10L18 10L18 8L17 8L17 6L16 6L16 5L17 5L17 4ZM8 5L8 7L9 7L9 5ZM15 6L15 7L16 7L16 6ZM15 8L15 9L14 9L14 10L13 10L13 11L12 11L12 13L11 13L11 12L10 12L10 13L11 13L11 14L10 14L10 18L9 18L9 19L10 19L10 18L14 18L14 19L12 19L12 20L14 20L14 19L15 19L15 20L16 20L16 18L15 18L15 17L12 17L12 15L13 15L13 16L17 16L17 15L18 15L18 14L19 14L19 13L20 13L20 14L21 14L21 13L20 13L20 11L19 11L19 13L17 13L17 11L16 11L16 12L14 12L14 10L16 10L16 9L17 9L17 8ZM21 8L21 9L22 9L22 8ZM1 9L1 10L2 10L2 11L1 11L1 12L4 12L4 14L5 14L5 15L6 15L6 16L7 16L7 15L6 15L6 14L7 14L7 13L8 13L8 15L9 15L9 11L8 11L8 10L7 10L7 9L6 9L6 10L5 10L5 12L4 12L4 9ZM6 10L6 11L7 11L7 10ZM6 12L6 13L5 13L5 14L6 14L6 13L7 13L7 12ZM13 12L13 13L12 13L12 14L13 14L13 15L16 15L16 14L17 14L17 13L16 13L16 14L14 14L14 12ZM2 16L2 17L3 17L3 16ZM17 17L17 20L20 20L20 17ZM18 18L18 19L19 19L19 18ZM21 18L21 19L22 19L22 18ZM21 20L21 21L22 21L22 20ZM14 21L14 22L16 22L16 21ZM19 21L19 22L18 22L18 23L21 23L21 22L20 22L20 21ZM23 22L23 23L22 23L22 24L24 24L24 22ZM0 0L0 7L7 7L7 0ZM1 1L1 6L6 6L6 1ZM2 2L2 5L5 5L5 2ZM18 0L18 7L25 7L25 0ZM19 1L19 6L24 6L24 1ZM20 2L20 5L23 5L23 2ZM0 18L0 25L7 25L7 18ZM1 19L1 24L6 24L6 19ZM2 20L2 23L5 23L5 20Z" fill="#000000"/></g></g></svg>
